<?xml version="1.0" encoding="UTF-8"?>
<svg id="Layer_1" xmlns="http://www.w3.org/2000/svg" version="1.1" viewBox="0 0 340.4 275.58">
  <!-- Generator: Adobe Illustrator 29.5.0, SVG Export Plug-In . SVG Version: 2.1.0 Build 137)  -->
  <defs>
    <style>
      .st0 {
        fill: #998089;
        opacity: .1;
      }

      .st1 {
        fill: #c797a8;
      }

      .st2 {
        fill: #b17e8c;
      }

      .st3 {
        fill: #845b6a;
      }
    </style>
  </defs>
  <ellipse class="st2" cx="161.98" cy="36.08" rx="66.64" ry="36.14"/>
  <ellipse class="st2" cx="150.3" cy="113.27" rx="88.84" ry="43.31"/>
  <path class="st2" d="M285.73,205.86c0,28.9-9.04,52.32-115.52,52.32s-115.52-23.43-115.52-52.32,51.72-52.32,115.52-52.32,115.52,23.43,115.52,52.32Z"/>
  <path class="st1" d="M264.76,199.08c0,16.64-7.04,30.12-90.03,30.12s-90.03-13.49-90.03-30.12,40.31-30.12,90.03-30.12,90.03,13.49,90.03,30.12Z"/>
  <path class="st1" d="M220.15,101.95c0,11.65-4.97,21.09-63.49,21.09s-63.49-9.44-63.49-21.09,28.43-21.09,63.49-21.09,63.49,9.44,63.49,21.09Z"/>
  <path class="st1" d="M215.07,29.67c0,11.02-3.91,19.96-49.94,19.96s-49.94-8.94-49.94-19.96,22.36-19.96,49.94-19.96,49.94,8.94,49.94,19.96Z"/>
  <path class="st3" d="M150.3,149.48c-30.6,0-58.2-5.84-77.7-15.21,15.16,13.3,44.27,22.3,77.7,22.3s62.54-9,77.7-22.3c-19.5,9.37-47.1,15.21-77.7,15.21Z"/>
  <path class="st3" d="M158.59,165.96c23.46,0,43.33-3.97,50.06-9.45-12.03-1.92-24.97-2.97-38.45-2.97-20.05,0-38.9,2.31-55.33,6.38,9.42,3.64,25.48,6.04,43.71,6.04Z"/>
  <path class="st3" d="M123.86,71.91c8.27,4.64,21.63,7.65,36.71,7.65,11.71,0,22.38-1.81,30.43-4.79-12.19-3.07-26.03-4.81-40.71-4.81-9.21,0-18.09.68-26.44,1.95Z"/>
  <path class="st3" d="M161.42,67.5c-22.48,0-42.74-5.12-57.09-13.31,11.53,10.78,33.03,18.03,57.65,18.03,25.92,0,48.36-8.03,59.38-19.75-14.45,9.19-35.93,15.03-59.94,15.03Z"/>
  <path class="st3" d="M170.21,258.18c54.87,0,83.87-6.22,99.09-16.21-19.14,4.05-59.17,10.42-118.04,9.25-49.2-.98-74.71-8.91-87.49-15.45,12.34,13.54,40.97,22.4,106.44,22.4Z"/>
  <ellipse class="st0" cx="169.89" cy="257.44" rx="169.41" ry="16.94"/>
</svg>